<svg width="128" height="128" xmlns="http://www.w3.org/2000/svg">

 <title/>
 <g>
  <title>background</title>
  <rect fill="none" id="canvas_background" height="402" width="582" y="-1" x="-1"/>
 </g>
 <g>
  <title>Layer 1</title>
  <path stroke-width="0" transform="rotate(-180 59.28514862060547,57.99999999999999) " fill="#d7f7b7" id="svg_1" d="m116.469605,65a9.08,9.08 0 0 0 -1,-1a58.65,58.65 0 0 0 0.31,-6a58,58 0 1 0 -58,58l12.01,0a49.77,49.77 0 0 0 48.93,-43.71a9.29,9.29 0 0 0 -2.25,-7.29z" class="cls-1"/>
  <path opacity="0.7" fill="#23af13" id="svg_2" d="m121.69,70a57.37,57.37 0 0 0 -0.12,-13l0,0a72,72 0 0 1 -68.57,50a71.65,71.65 0 0 1 -36.75,-10.09c0.4,0.59 0.81,1.17 1.24,1.74l0.05,0.07a57.91,57.91 0 0 0 46.46,23.28l12,0a49.77,49.77 0 0 0 48.93,-43.71a9.29,9.29 0 0 0 -2.25,-7.29a9.08,9.08 0 0 0 -0.99,-1z" class="cls-2"/>
  <path fill="#393c54" id="svg_3" d="m116.070386,71.779614a5,5 0 0 1 5.07,5.7a45.41,45.41 0 0 1 -90.26,-0.09a5,5 0 0 1 5,-5.61l80.19,0z" class="cls-3"/>
  <path fill="#f85565" id="svg_4" d="m89.71,107.45l0,-0.18a10.11,10.11 0 0 0 -6.69,-11.83a38.86,38.86 0 0 0 -11.81,-1.62a38.68,38.68 0 0 0 -11.89,1.65a10.1,10.1 0 0 0 -6.62,12l0,0.07a5.76,5.76 0 0 0 5.08,4a106.64,106.64 0 0 0 26.78,0a5.73,5.73 0 0 0 5.15,-4.09z" class="cls-4"/>
  <path fill="#ff8475" id="svg_5" d="m40.577356,77.389614c0.14,1.15 0.33,2.27 0.55,3.39l60.79,0a9,9 0 0 0 9,-9l-65.36,0a5,5 0 0 0 -4.98,5.61z" class="cls-5"/>
  <path fill="#ff8475" id="svg_6" d="m57.978099,110.4573a45,45 0 0 0 39.45,2.65a1.38,1.38 0 0 0 -0.53,-2.65l-38.92,0z" class="cls-5"/>
  <path fill="#ffffff" id="svg_7" d="m95.933885,101.134986l-37,0a2,2 0 0 0 -2,2l0,3.15a45.29,45.29 0 0 0 8.25,4.85l32.75,0a2,2 0 0 0 2,-2l0,-4a4,4 0 0 0 -4,-4z" class="cls-6"/>
  <path opacity="0.4" stroke-width="4px" stroke-linejoin="round" stroke-linecap="round" stroke="#f2bc0f" fill="none" id="svg_8" d="m67.281873,39.27573a10.5,10.5 0 0 0 16,11.24" class="cls-7"/>
  <path opacity="0.4" stroke-width="4px" stroke-linejoin="round" stroke-linecap="round" stroke="#f2bc0f" fill="none" id="svg_9" d="m61.138899,40.958815a10.5,10.5 0 0 1 -16,11.32" class="cls-7"/>
  <path fill="#ffffff" id="svg_10" d="m106.426997,77.763085l-59,0a2,2 0 0 0 -1.36,0.54a5,5 0 0 0 0,1.07a46.17,46.17 0 0 0 1.83,8.39l56.53,0a4,4 0 0 0 4,-4l0,-4a2,2 0 0 0 -2,-2z" class="cls-6"/>
  <path fill="#515570" opacity="0.3" id="svg_12" d="m35.66,77.61a5,5 0 0 1 5,-5.61l-5,0a5,5 0 0 0 -5,5.61a45.66,45.66 0 0 0 45.13,40.39c0.84,0 1.67,0 2.5,-0.08a45.7,45.7 0 0 1 -42.63,-40.31z" class="cls-9"/>
  <path fill="#515570" opacity="0.3" id="svg_13" d="m47.62,72l0,0z" class="cls-9"/>
  <path transform="rotate(46.02815246582031 73.35180664062497,98.78662872314455) " opacity="0.2" fill="#ffffff" id="svg_14" d="m69.011158,94.781543a8.63,8.63 0 0 1 4.65,6.43a2,2 0 0 0 2,1.67l0.33,0a2,2 0 0 0 1.67,-2.33a12.63,12.63 0 0 0 -2.49,-5.76q-1.59,-0.1 -3.24,-0.1c-1.01,0 -1.98,0.03 -2.92,0.09z" class="cls-10"/>
  <circle fill="#ffffff" id="svg_15" r="7" cy="44.812672" cx="23.60606" class="cls-6"/>
  <circle fill="#515570" id="svg_16" r="3.77" cy="44.592287" cx="23.385675" class="cls-9"/>
  <circle fill="#ffffff" id="svg_17" r="7" cy="41.066115" cx="102.630854" class="cls-6"/>
  <circle fill="#515570" id="svg_18" r="3.77" cy="40.404959" cx="102.410469" class="cls-9"/>
  <path opacity="0.4" stroke-width="4px" stroke-linejoin="round" stroke-linecap="round" stroke="#a38427" fill="none" id="svg_19" d="m20.049587,76.559229s-2,-9 8,-9c21,0 25,-10 25,-10" class="cls-7"/>
  <path opacity="0.4" stroke-width="4px" stroke-linejoin="round" stroke-linecap="round" stroke="#9b8133" fill="none" id="svg_20" d="m76.950413,57.338843s3,10 24,10l21.67,0" class="cls-7"/>
  <path opacity="0.4" stroke-width="4px" stroke-linejoin="round" stroke-linecap="round" stroke="#f2bc0f" fill="none" id="svg_21" d="m66,61s0,5 2,7" class="cls-7"/>
  <path opacity="0.4" stroke-width="4px" stroke-linejoin="round" stroke-linecap="round" stroke="#f2bc0f" fill="none" id="svg_22" d="m42.068457,20.184573a12.2,12.2 0 0 1 8.63,3.57l0.09,0.09a12.13,12.13 0 0 0 6.2,3.34a36.72,36.72 0 0 0 14.13,-0.05a12.29,12.29 0 0 0 6.38,-3.37l0,0a12.2,12.2 0 0 1 8.67,-3.58" class="cls-7"/>
  <path opacity="0.4" stroke-width="4px" stroke-linejoin="round" stroke-linecap="round" stroke="#f2bc0f" fill="none" id="svg_23" d="m58.331157,15.531101a16,16 0 0 0 16,0.33" class="cls-7"/>
 </g>
</svg>